<svg xmlns:inkscape="http://www.inkscape.org/namespaces/inkscape" xmlns:sodipodi="http://sodipodi.sourceforge.net/DTD/sodipodi-0.dtd" xmlns="http://www.w3.org/2000/svg" xmlns:svg="http://www.w3.org/2000/svg" version="1.1" x="0px" y="0px" viewBox="3.27 1.32 19.9 23.85"><g><path style="color:#000000;text-indent:0;text-decoration-line:none;text-decoration-style:solid;text-decoration-color:#000000;text-transform:none;direction:ltr;baseline-shift:baseline;white-space:normal;isolation:auto;mix-blend-mode:normal;color-interpolation:sRGB;color-interpolation-filters:linearRGB;solid-color:#000000;solid-opacity:1;color-rendering:auto;image-rendering:auto;shape-rendering:auto;enable-background:accumulate;" d="m 13.491256,1.3229166 c -1.921145,0 -3.484349,1.5622437 -3.484349,3.4833986 4.84e-4,1.933134 1.563717,3.483399 3.484349,3.483399 1.93314,0 3.499617,-1.550265 3.499617,-3.483399 0,-1.9211549 -1.566477,-3.4833986 -3.499617,-3.4833986 z M 9.6892799,9.3303462 c -2.582436,0 -4.4665146,1.8908438 -5.4673747,3.3393698 -0.8980452,1.396391 -1.224911,3.010806 -0.6142674,4.422924 0.6106486,1.412119 2.2694943,2.26482 4.1072081,2.09271 1.837699,-0.1721 3.9853911,-1.129117 6.6062471,-3.097097 0.603913,-0.453329 0.726043,-1.310367 0.272793,-1.914343 -0.453678,-0.604205 -1.311404,-0.725943 -1.915294,-0.271841 -2.373296,1.78209 -4.1717681,2.463018 -5.2184231,2.561042 -1.046649,0.09803 -1.209903,-0.147201 -1.342997,-0.454979 -0.133088,-0.307775 -0.1252545,-1.035403 0.404428,-1.859022 0.428211,-0.665837 1.163411,-1.362078 2.248183,-1.881912 v 3.085651 c 0.897263,-0.3575 2.0778641,-0.992655 3.4681401,-2.036435 0.345165,-0.259551 0.748152,-0.395314 1.153181,-0.414916 0.675048,-0.03267 1.356251,0.257112 1.788437,0.832696 0.690857,0.920594 0.502726,2.248736 -0.417779,2.939714 -2.257817,1.69538 -4.214887,2.694996 -5.9919791,3.083743 v 4.399078 c 0,0 1.090678,0.976726 4.7291021,0.976726 3.638423,0 4.729107,-0.976726 4.729107,-0.976726 V 23.864856 12.1804 c 0.158866,0.09303 0.300812,0.210136 0.44449,0.374856 0.361665,0.414659 0.711441,1.183277 0.957644,2.2644 0.492415,2.162235 0.580077,5.436069 0.79836,9.014678 0.09011,1.842956 2.86368,1.674333 2.729868,-0.165972 C 22.944271,20.15825 22.898777,16.854256 22.297045,14.212059 21.996188,12.890955 21.557033,11.70123 20.733714,10.757274 19.5412,9.6109712 18.654583,9.3303402 17.049056,9.3303402 Z" clip-rule="nonzero" display="inline" overflow="visible" visibility="visible" fill="#000000" fill-opacity="1" fill-rule="evenodd" stroke="none"/></g></svg>