<svg xmlns="http://www.w3.org/2000/svg" viewBox="0 0 512 512"><defs><filter id="shadow-1" height="300%" width="300%" x="-100%" y="-100%"><feFlood flood-color="rgba(133, 113, 96, 1)" result="flood"></feFlood><feComposite in="flood" in2="SourceGraphic" operator="atop" result="composite"></feComposite><feGaussianBlur in="composite" stdDeviation="50" result="blur"></feGaussianBlur><feOffset dx="0" dy="0" result="offset"></feOffset><feComposite in="SourceGraphic" in2="offset" operator="over"></feComposite></filter><linearGradient x1="0" x2="1" y1="0" y2="1" id="gradient-1"><stop offset="0%" stop-color="#2e1e14" stop-opacity="1"></stop><stop offset="100%" stop-color="#8d6f55" stop-opacity="1"></stop></linearGradient></defs><g class="" style="" transform="translate(0,0)"><path d="M257.688 20.375c-38.528 0-74.835 12.49-107.282 34.813h-54.25V460.5H150.063c32.555 22.454 69.036 35.063 107.625 35.063 38.588 0 75.044-12.61 107.593-35.063h53.908V55.188h-54.219c-32.447-22.323-68.754-34.812-107.283-34.812zM123.155 84.28H392.28V432.157H123.157V84.28zm18.688 18.69v108.718l126.844-108.72H141.844zm200.437 0L141.845 274.78v56.626l231.75-198.687v-29.75H342.28zm31.314 140.093L174.53 413.469h46.532l152.532-128.376v-42.03zm0 66.468l-123.5 103.94h123.5V309.53z" fill="url(#gradient-1)" stroke="#ddd6ce" stroke-opacity="1" stroke-width="6" filter="url(#shadow-1)"></path></g></svg>