<svg xmlns="http://www.w3.org/2000/svg" viewBox="0 0 512 512"><defs><filter id="shadow-1" height="300%" width="300%" x="-100%" y="-100%"><feFlood flood-color="rgba(133, 113, 96, 1)" result="flood"></feFlood><feComposite in="flood" in2="SourceGraphic" operator="atop" result="composite"></feComposite><feGaussianBlur in="composite" stdDeviation="50" result="blur"></feGaussianBlur><feOffset dx="0" dy="0" result="offset"></feOffset><feComposite in="SourceGraphic" in2="offset" operator="over"></feComposite></filter><linearGradient x1="0" x2="1" y1="0" y2="1" id="gradient-1"><stop offset="0%" stop-color="#2e1e14" stop-opacity="1"></stop><stop offset="100%" stop-color="#8d6f55" stop-opacity="1"></stop></linearGradient></defs><g class="" style="" transform="translate(0,0)"><path d="M16.37 29.06V52L193.3 154.3c19.7-14.4 39.3-28.8 58.9-43.1 66.2 81.7 123.6 152.7 182.7 225.5-97.5-15.7-199.6-31.9-286.9-45.5 2.8-24.7 5.6-49.4 8.5-74L16.38 136.1v63.5l24.5 141.1L66.94 190l22.18 106 17.38-83.4 25.5 14.7-9.9 84.7c8 40.9 15.5 83 23.1 124.3l10.7-58.5 19.9 117 28.5-167.4 21.5 117.4 20.4-111.1 17.7 36 16-32.7 18.8 3 22.1 132.9 20.8-126.1 12.8 2 24.5 63 14.8-38.1 18.1 98.4 17.6-96.3 16.8 23.5 22.9-32.3 25.6 4C413.2 270.3 327.5 165.2 257 78.41l-68.4 50.19zm0 44.53v40.91c53.31 31 106.83 61.6 160.03 92.6-2.6 22.8-5.2 45.7-7.8 68.5l221.1 35-44.9-55.4-9.6 31.3-20.4-66.1-13.3 46.5-19.3-72.2-16.2 79-28-110.2-15.5 51.9-13.9-46.5-12.4 67.6-12.1-66z" fill="url(#gradient-1)" stroke="#ddd6ce" stroke-opacity="1" stroke-width="6" filter="url(#shadow-1)"></path></g></svg>