<svg xmlns="http://www.w3.org/2000/svg" viewBox="0 0 512 512"><defs><filter id="shadow-1" height="300%" width="300%" x="-100%" y="-100%"><feFlood flood-color="rgba(133, 113, 96, 1)" result="flood"></feFlood><feComposite in="flood" in2="SourceGraphic" operator="atop" result="composite"></feComposite><feGaussianBlur in="composite" stdDeviation="50" result="blur"></feGaussianBlur><feOffset dx="0" dy="0" result="offset"></feOffset><feComposite in="SourceGraphic" in2="offset" operator="over"></feComposite></filter><linearGradient x1="0" x2="1" y1="0" y2="1" id="gradient-1"><stop offset="0%" stop-color="#2e1e14" stop-opacity="1"></stop><stop offset="100%" stop-color="#8d6f55" stop-opacity="1"></stop></linearGradient></defs><g class="" style="" transform="translate(0,0)"><path d="M216.242 23.555c-1.514-.042-3.074.125-4.588.125-32.333 0-58.656 33.378-58.656 74.736 0 20.942 6.97 39.84 17.813 53.44-67.073 10.403-65.61 115.718-65.61 188.576h40.41l9.992 151.642h78.41l-9.496-151.35h-40.58c0-72.856-1.285-178.355 65.79-188.755-10.842-13.602-17.83-32.55-17.83-53.49 0-22.137 7.473-41.88 19.374-55.46-9.035-10.623-20.667-17.67-33.532-19.34-.492-.075-.99-.11-1.496-.125zm78.703.402c-1.533-.04-3.126.125-4.64.125V492.59h52.26l11.683-151.865h42.422c0-72.654-5-175.973-66.402-187.526 11.328-13.665 19.06-33.248 19.06-54.72 0-38.777-23.35-70.56-52.875-74.398-.492-.074-.997-.11-1.508-.125z" fill="url(#gradient-1)" stroke="#ddd6ce" stroke-opacity="1" stroke-width="6" filter="url(#shadow-1)"></path></g></svg>